<?xml version="1.0" standalone="no"?><!DOCTYPE svg PUBLIC "-//W3C//DTD SVG 1.1//EN" "http://www.w3.org/Graphics/SVG/1.1/DTD/svg11.dtd"><svg t="1562812786326" class="icon" viewBox="0 0 1044 1024" version="1.1" xmlns="http://www.w3.org/2000/svg" p-id="940" xmlns:xlink="http://www.w3.org/1999/xlink" width="203.90625" height="200"><defs><style type="text/css"></style></defs><path d="M704 531.2c-6.4 0-12.8 0-19.2-6.4C659.2 499.2 640 512 627.2 524.8c-12.8 12.8-32 12.8-44.8 0C569.6 505.6 576 486.4 588.8 473.6c25.6-19.2 83.2-51.2 140.8 0 12.8 12.8 12.8 32 6.4 44.8C723.2 524.8 716.8 531.2 704 531.2z" p-id="941" fill="#ffffff"></path><path d="M275.2 531.2C268.8 531.2 256 524.8 249.6 518.4 236.8 505.6 243.2 486.4 256 473.6c57.6-51.2 115.2-19.2 140.8 0 12.8 12.8 12.8 32 0 44.8C384 531.2 364.8 531.2 352 518.4 345.6 512 320 499.2 294.4 524.8 288 524.8 281.6 531.2 275.2 531.2z" p-id="942" fill="#ffffff"></path><path d="M518.4 800c-38.4 0-70.4-19.2-89.6-32-12.8-12.8-12.8-32-6.4-44.8 12.8-12.8 32-12.8 44.8-6.4l0 0c6.4 6.4 51.2 38.4 83.2 0 12.8-12.8 32-12.8 44.8 0 12.8 12.8 12.8 32 0 44.8C576 793.6 550.4 800 518.4 800z" p-id="943" fill="#ffffff"></path><path d="M531.2 0c-281.6 0-512 230.4-512 512s230.4 512 512 512 512-230.4 512-512S812.8 0 531.2 0zM979.2 505.6c-44.8 0-172.8-96-256-204.8C646.4 198.4 556.8 192 486.4 185.6 416 179.2 371.2 172.8 339.2 108.8 396.8 76.8 460.8 64 531.2 64 774.4 64 972.8 262.4 979.2 505.6zM531.2 960c-249.6 0-448-198.4-448-448 0-153.6 76.8-294.4 198.4-371.2 44.8 96 121.6 102.4 192 108.8 70.4 6.4 134.4 12.8 192 89.6 51.2 64 204.8 224 307.2 230.4C947.2 787.2 761.6 960 531.2 960z" p-id="944" fill="#ffffff"></path></svg>