<?xml version="1.0" standalone="no"?><!DOCTYPE svg PUBLIC "-//W3C//DTD SVG 1.1//EN" "http://www.w3.org/Graphics/SVG/1.1/DTD/svg11.dtd"><svg t="1562812812317" class="icon" viewBox="0 0 1024 1024" version="1.1" xmlns="http://www.w3.org/2000/svg" p-id="1428" xmlns:xlink="http://www.w3.org/1999/xlink" width="200" height="200"><defs><style type="text/css"></style></defs><path d="M512 512C499.2 512 480 512 467.2 505.6L51.2 364.8C19.2 352 0 320 0 288s19.2-64 51.2-76.8l409.6-140.8c32-12.8 64-12.8 96 0l409.6 140.8C1004.8 224 1024 256 1024 288s-19.2 64-51.2 76.8L556.8 505.6C544 512 524.8 512 512 512zM512 128C505.6 128 492.8 128 486.4 134.4L76.8 275.2C64 275.2 64 281.6 64 288s0 12.8 12.8 12.8l409.6 140.8C505.6 448 518.4 448 537.6 441.6l409.6-140.8C960 300.8 960 294.4 960 288s0-12.8-12.8-12.8L537.6 134.4C531.2 128 518.4 128 512 128z" p-id="1429" fill="#ffffff"></path><path d="M723.2 864 300.8 864c-76.8 0-140.8-64-140.8-140.8L160 384c0-19.2 12.8-32 32-32S224 364.8 224 384l0 339.2c0 44.8 32 76.8 76.8 76.8l428.8 0c38.4 0 76.8-38.4 76.8-76.8L806.4 384c0-19.2 12.8-32 32-32s32 12.8 32 32l0 339.2C864 800 800 864 723.2 864z" p-id="1430" fill="#ffffff"></path><path d="M960 832c-19.2 0-32-12.8-32-32l0-384C928 396.8 940.8 384 960 384s32 12.8 32 32l0 384C992 819.2 979.2 832 960 832z" p-id="1431" fill="#ffffff"></path><path d="M960 908.8m-51.2 0a0.8 0.8 0 1 0 102.4 0 0.8 0.8 0 1 0-102.4 0Z" p-id="1432" fill="#ffffff"></path></svg>